<svg width="53" height="21" viewBox="0 0 53 21" fill="none" xmlns="http://www.w3.org/2000/svg">
<path d="M1.29883 20.3014V18.9797H2.53271V20.3014H3.18212V17.2781H2.53271V18.4676H1.29883V17.2781H0.649414V20.3014H1.29883Z" fill="#333333"/>
<path d="M8.89709 17.2781V18.9136C8.89709 19.4258 8.88085 19.8884 8.24767 19.8884C7.6145 19.8884 7.59826 19.4258 7.59826 18.9136V17.2781H6.93262V19.178C6.93262 19.9875 7.51709 20.3675 8.24767 20.3675C8.97826 20.3675 9.56273 19.971 9.56273 19.178V17.2781H8.89709Z" fill="#333333"/>
<path d="M15.3262 19.1944V19.8056C15.1638 19.8552 15.0015 19.9047 14.7579 19.9047C14.141 19.9047 13.8812 19.4752 13.8812 18.7979C13.8812 18.1205 14.1248 17.691 14.693 17.691C15.0826 17.691 15.3099 17.9388 15.3099 18.2031H15.9593C15.9593 17.6084 15.4398 17.2119 14.6443 17.2119C14.0273 17.2119 13.1831 17.5918 13.1831 18.7813C13.1831 19.9874 13.9949 20.3508 14.7092 20.3508C15.3262 20.3508 15.732 20.2186 15.9593 20.1195V18.6822H14.7255V19.1778H15.3262V19.1944Z" fill="#333333"/>
<path d="M45.4261 18.1205C45.4261 17.5092 44.8254 17.1788 44.2734 17.1788C43.7214 17.1788 43.1045 17.5258 43.1045 18.1205C43.1045 18.5501 43.413 18.7814 43.8351 18.9135C43.965 18.9466 44.1923 19.0292 44.3059 19.0622C44.7118 19.1779 44.8579 19.2935 44.8579 19.5413C44.8579 19.8717 44.5332 19.9874 44.3546 19.9874C43.8676 19.9874 43.689 19.7065 43.689 19.3596H43.0396C43.0396 20.0369 43.5266 20.4169 44.3384 20.4169C44.9715 20.4169 45.5398 20.07 45.5398 19.4587C45.5398 18.9796 45.1826 18.7153 44.728 18.5831C44.5657 18.5335 44.4195 18.5005 44.2572 18.4509C43.9 18.3353 43.7377 18.2362 43.7377 18.0214C43.7377 17.8066 43.9 17.6249 44.241 17.6249C44.5981 17.6249 44.7605 17.8562 44.7605 18.1536H45.4261V18.1205Z" fill="#333333"/>
<path d="M51.7904 18.1205C51.7904 17.5092 51.1897 17.1788 50.6377 17.1788C50.0857 17.1788 49.4688 17.5258 49.4688 18.1205C49.4688 18.5501 49.7772 18.7814 50.1993 18.9135C50.3292 18.9466 50.5565 19.0292 50.6702 19.0622C51.076 19.1779 51.2222 19.2935 51.2222 19.5413C51.2222 19.8717 50.8975 19.9874 50.7189 19.9874C50.2318 19.9874 50.0532 19.7065 50.0532 19.3596H49.4038C49.4038 20.0369 49.8909 20.4169 50.7026 20.4169C51.3358 20.4169 51.904 20.07 51.904 19.4587C51.904 18.9796 51.5469 18.7153 51.0923 18.5831C50.9299 18.5335 50.7838 18.5005 50.6215 18.4509C50.2643 18.3353 50.1019 18.2362 50.1019 18.0214C50.1019 17.8066 50.2643 17.6249 50.6052 17.6249C50.9624 17.6249 51.1247 17.8562 51.1247 18.1536H51.7904V18.1205Z" fill="#333333"/>
<path d="M21.1219 20.4004C22.1448 20.4004 22.5993 19.7065 22.5993 18.7979C22.5993 17.8892 22.1448 17.1954 21.1219 17.1954C20.0991 17.1954 19.6445 17.8892 19.6445 18.7979C19.6445 19.7065 20.0991 20.4004 21.1219 20.4004ZM21.1219 17.658C21.7713 17.658 21.9012 18.2527 21.9012 18.7814C21.9012 19.31 21.7713 19.9048 21.1219 19.9048C20.4725 19.9048 20.3426 19.31 20.3426 18.7814C20.3426 18.2692 20.4725 17.658 21.1219 17.658Z" fill="#333333"/>
<path d="M31.3666 20.3343C31.9673 20.3343 32.5193 20.037 32.5193 19.4752C32.5193 19.0127 32.1621 18.7483 31.8049 18.7153C32.0485 18.6822 32.3732 18.4179 32.3732 18.0379C32.3732 17.4927 31.9673 17.2449 31.3341 17.2449H30.019V20.3343H31.3666ZM30.6685 19.8552V18.9631H31.2529C31.5452 18.9631 31.7887 19.0457 31.7887 19.3926C31.7887 19.7231 31.5289 19.8387 31.2529 19.8387H30.6685V19.8552ZM30.6685 18.517V17.724H31.2692C31.5289 17.724 31.6913 17.9058 31.6913 18.1205C31.6913 18.3518 31.4802 18.5005 31.2367 18.5005H30.6685V18.517Z" fill="#333333"/>
<path d="M37.7632 20.4169C38.786 20.4169 39.2568 19.7065 39.2568 18.7979C39.2568 17.8727 38.786 17.1788 37.7632 17.1788C36.7404 17.1788 36.2695 17.8892 36.2695 18.7979C36.2695 19.7065 36.7404 20.4169 37.7632 20.4169ZM37.7632 17.6414C38.4288 17.6414 38.5587 18.2362 38.5587 18.7814C38.5587 19.3265 38.4288 19.9213 37.7632 19.9213C37.0975 19.9213 36.9676 19.3265 36.9676 18.7814C36.9676 18.2527 37.0975 17.6414 37.7632 17.6414Z" fill="#333333"/>
<path d="M40.4907 10.2071C40.6206 11.76 39.9549 14.6677 35.6201 14.8494C33.7043 14.932 31.3015 14.3208 30.3436 13.8747V10.141H30.8145C30.9119 10.6036 31.821 14.0564 34.9869 14.2216C36.8215 14.3042 38.2178 13.5278 38.2502 11.9748C38.2989 10.174 36.3345 9.54625 34.5648 8.83585C32.5679 8.02633 30.6359 7.21681 30.3599 5.01954C30.0676 2.4423 32.3893 0.691089 35.0681 0.806735C36.5455 0.872818 38.0229 1.23628 39.1594 1.69886V4.85434H38.6886C38.4126 3.13617 37.406 1.51713 35.1006 1.36844C33.753 1.28584 32.5354 1.79798 32.5354 3.28486C32.5354 4.77173 34.9707 5.383 36.7403 6.0934C38.5262 6.82031 40.2796 7.81156 40.4907 10.2071Z" fill="#333333"/>
<path d="M52.586 10.2071C52.7159 11.76 52.0502 14.6677 47.7154 14.8494C45.7997 14.932 43.3968 14.3208 42.439 13.8747V10.141H42.9098C43.0072 10.6036 43.9164 14.0564 47.0823 14.2216C48.9168 14.3042 50.3131 13.5278 50.3455 11.9748C50.3942 10.174 48.4298 9.54625 46.6601 8.83585C44.6632 8.02633 42.7312 7.21681 42.4714 5.01954C42.163 2.4423 44.4846 0.691089 47.1634 0.806735C48.6408 0.872818 50.1182 1.23628 51.2547 1.69886V4.85434H50.7839C50.5079 3.13617 49.5013 1.51713 47.1959 1.36844C45.8484 1.28584 44.6307 1.79798 44.6307 3.28486C44.6307 4.77173 47.066 5.383 48.8357 6.0934C50.6215 6.82031 52.3749 7.81156 52.586 10.2071Z" fill="#333333"/>
<path d="M14.2061 7.86108C14.2061 3.89608 17.3557 0.69104 21.2522 0.69104C25.1486 0.69104 28.2983 3.89608 28.2983 7.86108C28.2983 11.8261 25.1486 15.0311 21.2522 15.0311C17.3557 15.0311 14.2061 11.8096 14.2061 7.86108ZM21.2522 14.4198C24.0122 14.3868 24.97 10.8018 24.97 7.84456C24.97 4.87081 23.7686 1.25275 21.2522 1.25275C18.6058 1.23623 17.5343 4.88733 17.5343 7.84456C17.5343 10.8018 18.4922 14.4529 21.2522 14.4198Z" fill="#333333"/>
<path d="M1.20141 13.5277C1.20141 13.9242 0.746823 14.1225 0.324706 14.1225H0V14.6346H7.17599C9.7087 14.6346 12.4038 13.4451 12.4362 10.8018C12.4687 7.77846 9.4327 7.24979 8.47482 7.16719C9.96846 6.91938 11.7381 5.64728 11.6569 3.82998C11.5595 1.89705 9.54634 0.988403 7.64682 0.988403L0.0811764 1.00492V1.51707H0.470823C0.763058 1.51707 1.21765 1.59967 1.21765 2.02922V13.5277H1.20141ZM4.26988 14.0729V7.53065H6.03952C8.03646 7.53065 9.07552 8.96796 9.1567 10.6035C9.27034 12.553 7.84164 14.0729 6.03952 14.0729H4.26988ZM4.26988 7.00198V1.51707H5.76352C7.2247 1.51707 8.42611 2.45876 8.49105 4.1604C8.55599 5.77944 7.35458 7.00198 5.8447 7.00198H4.26988Z" fill="#333333"/>
</svg>
