<svg width="99" height="8" viewBox="0 0 99 8" fill="none" xmlns="http://www.w3.org/2000/svg">
<path fill-rule="evenodd" clip-rule="evenodd" d="M0 6.8541H1.31599V0.274164H0V0C1.59015 0 3.07064 0 4.66079 0C5.64778 0 6.8541 0.0548328 7.73143 0.38383C8.33459 0.657994 8.66358 1.20632 8.66358 1.75465C8.66358 2.30298 8.33459 2.57714 7.84109 2.96097C7.56693 3.12547 7.40243 3.1803 7.0186 3.28997C7.56693 3.3448 7.95076 3.45447 8.49909 3.78346C9.04741 4.16729 9.32158 4.71562 9.32158 5.20912C9.32158 5.81228 8.88292 6.41544 8.11526 6.63477C6.96377 7.07343 5.64778 7.07343 4.38662 7.07343H0V6.8541ZM3.5093 6.8541H4.44146C5.26395 6.8541 5.86711 6.6896 6.36061 6.5251C6.79927 6.30577 7.1831 5.92194 7.1831 5.20912C7.1831 4.38663 6.96377 3.78346 6.03161 3.5093C5.59295 3.39963 3.45447 3.45447 3.45447 3.45447V6.8541H3.5093ZM3.5093 3.12547C4.49629 3.12547 5.59295 3.1803 5.97678 3.0158C6.57994 2.74164 6.79927 2.46748 6.79927 1.69982C6.79927 1.04182 6.57994 0.712827 6.19611 0.548328C5.75745 0.328997 4.98979 0.274164 4.27696 0.274164H3.5093V3.12547ZM37.5605 6.8541H38.8765V0.274164H37.5605V0C39.1506 0 40.6859 0 42.2213 0C43.2083 0 44.4146 0.0548328 45.2919 0.38383C45.9499 0.657994 46.2241 1.20632 46.2241 1.75465C46.2241 2.30298 45.8951 2.57714 45.4016 2.96097C45.1274 3.12547 44.9629 3.1803 44.5791 3.28997C45.1274 3.3448 45.5112 3.45447 46.1144 3.78346C46.6627 4.16729 46.8821 4.71562 46.8821 5.20912C46.8821 5.81228 46.4434 6.41544 45.7306 6.63477C44.5791 7.07343 43.2083 7.07343 42.0019 7.07343H37.5605V6.8541ZM41.1246 6.8541H42.0568C42.8793 6.8541 43.4824 6.6896 43.9759 6.5251C44.4146 6.30577 44.7984 5.92194 44.7984 5.20912C44.7984 4.38663 44.6339 3.78346 43.6469 3.5093C43.2083 3.39963 41.1246 3.45447 41.1246 3.45447V6.8541ZM41.1246 3.12547C42.1116 3.12547 43.1534 3.1803 43.5921 3.0158C44.1952 2.74164 44.4146 2.46748 44.4146 1.69982C44.4146 1.04182 44.1404 0.712827 43.7566 0.493495C43.3179 0.274164 42.5503 0.219331 41.8374 0.219331H41.1246V3.12547ZM12.8857 5.31878V0.274164H11.4052V0H16.3402V0.274164H14.9145V5.26395C14.9145 5.75745 15.1339 6.08644 15.5725 6.36061C15.9563 6.6896 16.4498 6.8541 17.382 6.8541C18.4787 6.8541 19.3011 6.63477 19.7398 6.19611C20.2333 5.81228 20.4526 5.31878 20.4526 4.82529V0.274164H19.027V0H22.4815V0.274164H21.0558V4.88012C21.0558 5.59295 20.7268 6.19611 20.1236 6.63477C19.4108 7.07343 18.698 7.29276 17.4368 7.29276C16.2305 7.29276 14.8597 7.12827 14.092 6.79927C13.2695 6.47027 12.8857 5.97678 12.8857 5.31878ZM25.9359 6.8541V0.274164H24.5103V0H29.9935C31.1999 0.0548328 31.803 0 32.6255 0.328997C33.1739 0.548328 33.5577 1.04182 33.5577 1.69982C33.5577 3.07064 32.2965 3.23514 31.4192 3.39963C32.1869 3.45447 32.6255 3.56413 33.119 3.78346C33.6125 4.05763 33.8318 4.49629 33.9415 4.71562C34.0512 5.09945 33.9963 5.53811 33.9963 5.92194C34.0512 6.63477 34.435 6.90894 35.0382 6.8541C35.2027 6.79927 35.3672 6.74444 35.4768 6.63477L35.6413 6.96377C35.2575 7.23793 34.8188 7.3476 34.3802 7.29276C33.6673 7.29276 33.0642 7.1831 32.6255 6.90894C32.1869 6.63477 31.9127 6.25094 31.803 5.70261C31.803 5.26395 31.803 4.82529 31.6934 4.38663C31.4192 3.6738 30.487 3.56413 29.8839 3.56413H28.1292V6.90894H29.6097V7.12827H24.4006V6.8541H25.9359ZM28.0744 3.1803H29.9935C30.9257 3.1803 31.474 2.79647 31.474 1.64498C31.474 0.712827 30.7064 0.219331 29.8839 0.219331H28.0744V3.1803ZM76.3821 6.8541V0.274164H74.9565V0H80.4397C81.646 0.0548328 82.2492 0 83.0169 0.328997C83.62 0.548328 84.0039 1.04182 84.0039 1.69982C84.0039 3.07064 82.7427 3.23514 81.8106 3.39963C82.633 3.45447 83.0169 3.56413 83.5104 3.78346C84.0587 4.05763 84.278 4.49629 84.3329 4.71562C84.4974 5.09945 84.4425 5.53811 84.4425 5.92194C84.4974 6.63477 84.8812 6.90894 85.4843 6.8541C85.6488 6.79927 85.8133 6.74444 85.923 6.63477L86.0875 6.96377C85.7585 7.23793 85.265 7.3476 84.8264 7.29276C84.1135 7.29276 83.5652 7.1831 83.1265 6.90894C82.6879 6.63477 82.3589 6.25094 82.3041 5.70261C82.2492 5.26395 82.2492 4.82529 82.0847 4.38663C81.8654 3.6738 80.8784 3.56413 80.2752 3.56413H78.5754V6.90894H80.0559V7.12827H74.8468V6.8541H76.3821ZM78.5206 3.1803H80.3849C81.3171 3.1803 81.9202 2.79647 81.9202 1.64498C81.9202 0.712827 81.1526 0.219331 80.3301 0.219331H78.5206V3.1803ZM63.3319 6.8541V0.274164H61.9062V0H67.3895C68.5958 0.0548328 69.199 0 70.0215 0.328997C70.5698 0.548328 71.0085 1.04182 71.0085 1.69982C71.0085 3.07064 69.7473 3.23514 68.8152 3.39963C69.5828 3.45447 70.0215 3.56413 70.515 3.78346C71.0085 4.05763 71.2278 4.49629 71.3375 4.71562C71.502 5.09945 71.3923 5.53811 71.3923 5.92194C71.4472 6.63477 71.831 6.90894 72.4341 6.8541C72.5986 6.79927 72.7631 6.74444 72.8728 6.63477L73.0373 6.96377C72.7083 7.23793 72.2148 7.3476 71.7761 7.29276C71.0633 7.29276 70.4602 7.1831 70.0215 6.90894C69.5828 6.63477 69.3087 6.25094 69.199 5.70261C69.1442 5.26395 69.1442 4.82529 69.0345 4.38663C68.7603 3.6738 67.8282 3.56413 67.225 3.56413H65.4704V6.90894H67.0057V7.12827H61.7966V6.8541H63.3319ZM65.5252 3.1803H67.4444C68.3765 3.1803 68.9248 2.79647 68.9248 1.64498C68.9248 0.712827 68.1572 0.219331 67.3347 0.219331H65.5252V3.1803ZM49.3495 6.8541H50.7752V0.274164H49.3495V0H58.3969V2.13848H58.0679C57.9035 1.59015 57.5196 0.822492 57.081 0.548328C56.752 0.38383 56.2585 0.274164 55.436 0.274164H52.9685V3.28997C53.5168 3.28997 54.2845 3.3448 54.778 3.12547C55.1618 2.96097 55.436 2.52231 55.4908 2.08365H55.8746V4.93495H55.4908C55.436 4.38663 55.107 4.05763 54.7231 3.89313C54.3393 3.72863 53.6265 3.72863 52.9137 3.72863V6.90894H55.6553C56.8616 6.90894 57.2455 6.74444 57.739 6.47027C58.1776 6.14128 58.5614 5.42845 58.6711 4.71562H59.0001V7.12827H49.3495V6.8541ZM89.7065 6.8541H91.4063V3.78346L88.0615 0.274164H86.6358V0H92.1191V0.274164H90.4741L93.2706 3.39963L96.1767 0.274164H94.2576V0H98.3152V0.274164H96.7799L93.5996 3.78346V6.8541H95.2994V7.12827H89.8161V6.8541H89.7065Z" fill="#333333"/>
</svg>
