<svg width="95" height="15" viewBox="0 0 95 15" fill="none" xmlns="http://www.w3.org/2000/svg">
<path fill-rule="evenodd" clip-rule="evenodd" d="M90.9648 0.529663H94.2598C93.9068 0.823858 93.6714 1.17689 93.6714 1.6476V13.0624C93.6714 13.5331 93.9068 13.8861 94.2598 14.1803H90.9648C91.3179 13.8861 91.5532 13.5331 91.5532 13.0624V1.6476C91.5532 1.11805 91.3179 0.765019 90.9648 0.529663Z" fill="#333333"/>
<path fill-rule="evenodd" clip-rule="evenodd" d="M14.0037 5.41409C13.4741 4.23732 12.8857 3.11938 11.8855 2.23679C10.8264 1.35421 9.47307 0.765821 8.06093 0.765821C4.35408 0.765821 2.70659 4.11964 2.70659 7.41462C2.70659 10.5919 4.29524 13.8281 7.88441 13.8281C9.35539 13.8281 10.7675 13.1808 11.6501 12.0629V9.47398C11.6501 8.76791 11.4148 8.2972 10.8852 7.88533H14.7097C14.2979 8.35604 14.0625 8.82675 14.0625 9.47398V12.0629C12.2973 13.7104 10.1791 14.6518 7.76674 14.6518C3.4715 14.7106 0 11.5922 0 7.2381C0 2.94286 3.41266 0.000915527 7.59022 0.000915527C10.1791 0.000915527 12.2973 0.942338 14.0037 2.88402V5.41409Z" fill="#333333"/>
<path fill-rule="evenodd" clip-rule="evenodd" d="M23.3003 0.529663H26.8895C26.4188 0.882697 26.2422 1.29457 26.2422 1.88296V10.2381C26.2422 12.5328 28.9488 13.6507 30.8905 13.6507C32.8322 13.6507 35.3623 12.5328 35.3623 10.2969V1.88296C35.3623 1.29457 35.2446 0.941535 34.8327 0.529663H36.7744C36.3625 0.941535 36.2449 1.35341 36.2449 1.88296V10.2969C36.2449 13.2977 32.7145 14.4745 30.2433 14.4745C27.7132 14.4745 24.0064 13.3565 24.0064 10.2381V1.88296C23.9475 1.29457 23.7122 0.882697 23.3003 0.529663Z" fill="#333333"/>
<path fill-rule="evenodd" clip-rule="evenodd" d="M59.1333 5.47202C58.6626 4.29524 58.0742 3.23614 57.1328 2.35356C56.0737 1.41213 54.7792 0.823745 53.3671 0.823745C49.6602 0.823745 47.7774 4.05989 47.7774 7.35486C47.7774 10.7087 49.7191 13.886 53.3671 13.886C56.0737 13.886 58.0154 12.0031 59.1333 9.70842V12.1797C57.4858 13.8271 55.3088 14.7097 52.8964 14.7097C48.4835 14.7097 45.1885 11.8855 45.1885 7.35486C45.2473 2.88311 48.4246 0 52.7199 0C55.1322 0 57.427 0.823745 59.1333 2.47123V5.47202Z" fill="#333333"/>
<path fill-rule="evenodd" clip-rule="evenodd" d="M82.198 5.47226C81.7273 4.29548 81.1389 3.23638 80.1975 2.3538C79.1384 1.41238 77.8439 0.823988 76.4318 0.823988C72.7249 0.823988 70.9009 4.06013 70.9009 7.35511C70.9009 10.7089 72.8426 13.8862 76.4906 13.8862C79.1972 13.8862 81.1389 12.0034 82.2568 9.70866V12.1799C80.5505 13.8274 78.4323 14.71 76.0199 14.71C71.607 14.71 68.312 11.8857 68.312 7.35511C68.312 2.94219 71.4893 0.059082 75.7846 0.059082C78.197 0.059082 80.4917 0.882827 82.198 2.53032V5.47226Z" fill="#333333"/>
</svg>
