<svg width="70" height="11" viewBox="0 0 70 11" fill="none" xmlns="http://www.w3.org/2000/svg">
<path fill-rule="evenodd" clip-rule="evenodd" d="M0 0.168626L1.04393 1.2964V9.59267L0.274032 10.6816L5.02392 10.6945L4.16268 9.69638L4.07134 6.7149L8.65159 6.74083C10.0609 6.28713 11.4833 5.34083 11.5616 3.42232C11.5355 1.56862 10.361 0.388996 8.99087 0.1427L0 0.168626ZM3.91475 0.700106V6.02787L7.43802 6.05379C8.23402 5.43157 8.84733 4.96491 8.82123 3.47417C8.80818 2.26862 8.5472 1.20566 7.35972 0.700106H3.91475Z" fill="#333333"/>
<path fill-rule="evenodd" clip-rule="evenodd" d="M13.7539 0.116601L14.7978 1.24438V9.54065L14.0279 10.6295L18.7778 10.6425L17.9166 9.64435L17.8252 6.66288H17.8383L22.7448 10.6814L26.8161 10.6555L23.0971 7.57028H19.9914L18.8953 6.67584L22.3924 6.6888C23.7757 6.24806 25.2111 5.30177 25.2763 3.38326C25.2502 1.52956 24.0758 0.33697 22.7056 0.103638L13.7539 0.116601ZM17.6687 0.635118V5.96288L21.1919 5.98881C21.9879 5.36659 22.6012 4.89992 22.5751 3.40918C22.5621 2.20363 22.3011 1.14067 21.1136 0.635118H17.6687Z" fill="#333333"/>
<path fill-rule="evenodd" clip-rule="evenodd" d="M30.7699 0.103638H34.8673L40.2045 9.5925C40.4393 10.3314 41.1309 10.2406 41.5877 10.5518H36.4202L37.1901 10.3184L37.1379 9.60546L35.8069 7.55732L31.2658 7.58325L30.3001 9.55361C30.274 9.77398 30.0131 9.95546 30.2088 10.2277L30.5742 10.5647L28.3428 10.5129L29.3084 10.2277L32.9752 2.82585V2.3203L31.4354 0.362896L30.7699 0.103638ZM31.5659 6.92214L33.445 3.49992L35.4024 6.89621L31.5659 6.92214Z" fill="#333333"/>
<path fill-rule="evenodd" clip-rule="evenodd" d="M58.4994 0.116699H62.5968L67.9339 9.61852C68.1688 10.3574 68.8604 10.2667 69.3172 10.5778H64.1497L64.9196 10.3444L64.8674 9.63149L63.5364 7.59631L58.9953 7.62223L58.0296 9.5926C58.0035 9.81297 57.7426 9.99445 57.9383 10.2667L58.3037 10.6037L56.0723 10.5519L57.0379 10.2667L60.7047 2.86484V2.35929L59.1519 0.375958L58.4994 0.116699ZM59.2954 6.9352L61.1745 3.51299L63.1319 6.90927L59.2954 6.9352Z" fill="#333333"/>
<path fill-rule="evenodd" clip-rule="evenodd" d="M43.01 -6.10352e-05L50.3175 0.0388277C52.6664 0.570308 54.167 1.94438 54.6237 4.34252L54.6107 6.22214C54.1801 8.36103 52.7708 9.8388 50.3045 10.5906L42.9839 10.6036V10.3832C44.0931 10.3055 44.1844 10.1758 44.1844 9.55361V1.01105C44.1714 0.544382 44.08 0.246235 42.9969 0.220309L43.01 -6.10352e-05ZM47.1596 0.725863L47.1466 9.96843C48.1122 9.96843 48.9473 10.0592 49.4171 9.82584C50.4871 9.35917 50.983 8.63325 51.0352 7.95918L51.0091 2.51475C51.0091 1.64623 50.0174 1.02401 49.4563 0.868455C49.0387 0.7129 48.2296 0.7129 47.1596 0.725863Z" fill="#333333"/>
</svg>
