<svg width="25" height="25" viewBox="0 0 25 25" fill="none" xmlns="http://www.w3.org/2000/svg">
<path d="M22.8999 6.33332C22.1343 6.67332 21.3119 6.90212 20.4487 7.00532C21.3303 6.47732 22.0063 5.64132 22.3247 4.64452C21.5007 5.13332 20.5871 5.48852 19.6143 5.68052C18.8359 4.85092 17.7271 4.33252 16.4999 4.33252C14.1431 4.33252 12.2327 6.24372 12.2327 8.59972C12.2327 8.93412 12.2711 9.26052 12.3431 9.57172C8.79672 9.39412 5.65272 7.69492 3.54712 5.11252C3.18072 5.74292 2.97032 6.47572 2.97032 7.25892C2.97032 8.73892 3.72312 10.0453 4.86792 10.8101C4.16872 10.7877 3.51032 10.5957 2.93512 10.2765C2.93512 10.2949 2.93512 10.3117 2.93512 10.3301C2.93512 12.3981 4.40552 14.1229 6.35832 14.5141C6.00072 14.6117 5.62312 14.6637 5.23352 14.6637C4.95912 14.6637 4.69112 14.6365 4.43112 14.5877C4.97432 16.2829 6.55032 17.5173 8.41752 17.5517C6.95752 18.6965 5.11752 19.3789 3.11752 19.3789C2.77352 19.3789 2.43352 19.3589 2.09912 19.3189C3.98792 20.5293 6.23032 21.2357 8.64072 21.2357C16.4903 21.2357 20.7815 14.7333 20.7815 9.09412C20.7815 8.90932 20.7775 8.72532 20.7695 8.54212C21.6039 7.93972 22.3279 7.18852 22.8999 6.33332Z" fill="#333333"/>
<rect x="1" y="1.28369" width="23" height="23" stroke="black"/>
</svg>
