<svg width="99" height="13" viewBox="0 0 99 13" fill="none" xmlns="http://www.w3.org/2000/svg">
<path fill-rule="evenodd" clip-rule="evenodd" d="M22.2127 2.85352L22.6044 5.20346H22.3806C22.0448 3.74873 20.758 3.13327 19.3032 3.13327C19.0794 3.13327 18.8556 3.13327 18.5759 3.24517V7.27365H19.1354C20.3104 7.27365 20.9818 6.82604 20.9818 5.87488H21.2056V9.17599H21.0377C20.9258 8.44863 20.702 7.55341 19.1913 7.55341H18.6318V11.3021C18.6318 11.9176 18.9116 12.2533 19.8068 12.2533V12.4771H15.8343V12.2533C16.7295 12.2533 17.0092 11.9176 17.0092 11.3021V4.02849C17.0092 3.46898 16.6735 3.07732 15.7783 3.07732V2.85352H22.2127Z" fill="#333333"/>
<path fill-rule="evenodd" clip-rule="evenodd" d="M30.2137 2.85352L30.6053 5.20346H30.3815C30.0458 3.74873 28.7589 3.13327 27.3042 3.13327C27.0804 3.13327 26.8566 3.13327 26.5769 3.24517V7.27365H27.1364C28.3113 7.27365 28.9827 6.82604 28.9827 5.87488H29.2066V9.17599H29.0387C28.9268 8.44863 28.703 7.55341 27.1923 7.55341H26.6328V11.3021C26.6328 11.9176 26.9126 12.2533 27.8078 12.2533V12.4771H23.8352V12.2533C24.7305 12.2533 25.0102 11.9176 25.0102 11.3021V4.02849C25.0102 3.46898 24.6745 3.07732 23.7793 3.07732V2.85352H30.2137Z" fill="#333333"/>
<path fill-rule="evenodd" clip-rule="evenodd" d="M13.8757 2.85352V3.07732C13.2043 3.07732 12.8126 3.41303 12.8126 4.02849V11.2462C12.8126 11.9176 13.2602 12.1974 13.8757 12.1974V12.4212H10.127V12.1974C10.7984 12.1414 11.19 11.8616 11.19 11.2462V4.02849C11.19 3.41303 10.7984 3.07732 10.127 3.07732V2.85352H13.8757Z" fill="#333333"/>
<path fill-rule="evenodd" clip-rule="evenodd" d="M9.00813 0.223816L9.39979 3.13327H9.23193C8.67242 1.62259 7.60935 0.615474 5.65106 0.615474V10.8545C5.65106 11.9735 6.26652 12.3093 6.93794 12.3093V12.5331H2.46185V12.3093C3.07731 12.3093 3.86063 11.9735 3.86063 10.8545V0.559523C1.84639 0.559523 0.895218 1.51069 0.167853 3.13327H0L0.335707 0.223816H9.00813Z" fill="#333333"/>
<path fill-rule="evenodd" clip-rule="evenodd" d="M63.6725 9.34383C63.6725 10.8545 64.7356 11.9735 66.3022 11.9735C66.9736 11.9735 67.7569 11.6378 68.3164 11.0224L65.1832 7.04984C64.3999 7.21769 63.6725 8.05696 63.6725 9.34383ZM67.9248 3.35706C67.9248 2.12614 67.3653 1.51068 66.3022 1.51068C65.2391 1.51068 64.6237 2.12614 64.6237 3.13326C64.6237 4.30823 66.1903 5.87486 66.1903 5.87486C67.4212 5.20345 67.9248 4.47609 67.9248 3.35706ZM66.4141 6.15462L69.0998 9.51169C69.0998 9.51169 69.3795 8.95217 69.4355 8.44861C69.4355 7.83315 69.0998 7.60935 68.5962 7.49745V7.32959H71.5057C71.5057 7.32959 71.5616 7.49745 71.5057 7.49745C70.9462 7.60935 70.5545 7.7772 70.1628 8.05696C69.8271 8.44861 69.6593 8.78432 69.3236 9.67954L70.5545 11.1902C71.114 11.8057 71.7854 12.1414 72.5687 12.1973V12.4211H69.3795V12.1973L68.4843 11.1343C67.7569 11.8616 66.526 12.533 65.351 12.533C63.4487 12.533 62.2178 11.47 62.2178 10.0152C62.2178 8.39266 63.7285 7.38554 64.9034 6.60223C64.9034 6.60223 63.6166 5.1475 63.6166 3.80467C63.6166 2.29399 64.7915 1.11902 66.3582 1.11902C67.7569 1.11902 68.876 2.12614 68.876 3.35706C68.876 4.86774 67.2534 5.48321 66.4141 6.15462Z" fill="#333333"/>
<path fill-rule="evenodd" clip-rule="evenodd" d="M85.7729 0L85.8848 3.86063H85.661C85.2694 1.67853 83.8146 0.447609 82.0242 0.447609C79.8421 0.447609 78.3314 2.96541 78.3314 6.37843C78.3314 10.5748 80.01 12.3092 82.304 12.3092C84.7099 12.3092 85.661 10.0712 85.8848 8.50457H86.1086V10.1831C85.717 10.9105 84.486 12.533 81.9682 12.533C78.779 12.533 76.2612 9.90335 76.2612 6.37843C76.2612 3.18921 79.0588 0.223804 81.9682 0.223804C83.6468 0.223804 84.0944 0.951169 84.7658 0.951169C85.2694 0.951169 85.4932 0.615462 85.4932 0H85.7729V0Z" fill="#333333"/>
<path fill-rule="evenodd" clip-rule="evenodd" d="M97.467 10.6866C97.9706 10.6866 98.3622 11.0783 98.3622 11.5819C98.3622 12.0854 97.9706 12.4211 97.467 12.4211C96.9634 12.4211 96.5718 12.0854 96.5718 11.5819C96.5718 11.0783 96.9634 10.6866 97.467 10.6866Z" fill="#333333"/>
<path fill-rule="evenodd" clip-rule="evenodd" d="M88.6827 7.49744C88.6827 10.4628 89.8577 12.3092 91.6481 12.3092C93.4945 12.3092 94.6695 10.6307 94.6695 7.49744C94.6695 4.64393 93.6623 3.0773 91.7041 3.02135C89.6898 2.9654 88.6827 4.86774 88.6827 7.49744ZM91.6481 2.79755C94.3897 2.79755 96.6837 4.86774 96.6837 7.66529C96.6837 10.3509 94.5016 12.4771 91.7041 12.4771C88.9625 12.4771 86.6685 10.295 86.6685 7.66529C86.6685 5.03559 88.9065 2.79755 91.6481 2.79755Z" fill="#333333"/>
<path fill-rule="evenodd" clip-rule="evenodd" d="M33.9623 4.86771L35.5849 8.84024H32.3397L33.9623 4.86771ZM39.3336 12.2533C38.9979 12.2533 38.7182 11.9176 38.5503 11.6938C38.4384 11.4699 34.6897 2.34991 34.6897 2.34991L31.2767 10.6866C30.885 11.7497 30.3255 12.2533 29.5981 12.2533V12.4771H32.3957V12.2533C31.8362 12.1973 31.4445 11.9176 31.4445 11.5259C31.4445 11.1902 32.3397 9.06405 32.3397 9.06405H35.6968C35.6968 9.06405 36.648 11.0783 36.648 11.5259C36.7039 11.8616 36.1444 12.2533 35.6409 12.2533V12.4771H39.3336V12.2533Z" fill="#333333"/>
<path fill-rule="evenodd" clip-rule="evenodd" d="M40.8441 10.7986C40.8441 11.6938 40.2846 12.0854 39.6691 12.2533V12.4771H42.4667V12.2533C41.6834 12.0854 41.2357 11.5259 41.2357 10.7986V4.53205L47.782 12.645V4.8118C47.782 3.69278 48.3975 3.02137 49.1249 3.02137V2.85352H45.9916V3.02137C46.8868 3.30112 47.5023 3.80468 47.5023 4.86776V9.67955L42.0191 2.85352H39.4453V3.02137C40.5643 3.07732 40.8441 3.97254 40.8441 4.19634V10.7986Z" fill="#333333"/>
<path fill-rule="evenodd" clip-rule="evenodd" d="M49.4609 3.07732C49.8526 3.07732 49.9645 3.07732 50.2443 3.63683C50.2443 3.63683 53.2097 8.39268 53.2097 8.44863V11.3021C53.2097 11.9176 52.6501 12.2533 51.8668 12.3093V12.4771H56.0072V12.3093C55.2799 12.2533 54.7763 11.9176 54.7763 11.3021V7.94507C54.7763 7.94507 56.6786 4.53205 56.8465 4.19634C57.2941 3.46898 57.9096 3.02137 58.6929 2.96542V2.85352H55.3358L55.3918 2.96542C56.4548 2.96542 56.7346 3.97254 56.3429 4.588L54.5525 7.83316L52.4263 4.08444C52.0906 3.52493 52.5382 2.96542 53.3216 2.96542V2.85352H49.4609V3.07732Z" fill="#333333"/>
</svg>
